<?xml version="1.0" encoding="UTF-8" standalone="no"?>
<!DOCTYPE svg PUBLIC "-//W3C//DTD SVG 1.1//EN"
 "http://www.w3.org/Graphics/SVG/1.1/DTD/svg11.dtd">
<!-- Generated by graphviz version 2.50.0 (0)
 -->
<!-- Title: packages Pages: 1 -->
<svg width="1542pt" height="692pt"
 viewBox="0.00 0.00 1541.50 692.00" xmlns="http://www.w3.org/2000/svg" xmlns:xlink="http://www.w3.org/1999/xlink">
<g id="graph0" class="graph" transform="scale(1 1) rotate(0) translate(4 688)">
<title>packages</title>
<polygon fill="white" stroke="transparent" points="-4,4 -4,-688 1537.5,-688 1537.5,4 -4,4"/>
<!-- src -->
<g id="node1" class="node">
<title>src</title>
<polygon fill="none" stroke="black" points="556,-36 502,-36 502,0 556,0 556,-36"/>
<text text-anchor="middle" x="529" y="-14.3" font-family="Times,serif" font-size="14.00">src</text>
</g>
<!-- src.builder -->
<g id="node2" class="node">
<title>src.builder</title>
<polygon fill="none" stroke="black" points="668,-36 574,-36 574,0 668,0 668,-36"/>
<text text-anchor="middle" x="621" y="-14.3" font-family="Times,serif" font-size="14.00">src.builder</text>
</g>
<!-- src.discovery.definitions -->
<g id="node5" class="node">
<title>src.discovery.definitions</title>
<polygon fill="none" stroke="black" points="501,-468 313,-468 313,-432 501,-432 501,-468"/>
<text text-anchor="middle" x="407" y="-446.3" font-family="Times,serif" font-size="14.00">src.discovery.definitions</text>
</g>
<!-- src.builder&#45;&gt;src.discovery.definitions -->
<g id="edge1" class="edge">
<title>src.builder&#45;&gt;src.discovery.definitions</title>
<path fill="none" stroke="black" d="M573.82,-34C538.75,-45.61 494.27,-61.45 478,-72 402.85,-120.74 384.63,-140.14 337,-216 292.72,-286.52 239.33,-326.37 285,-396 294.02,-409.75 307.46,-419.96 322.17,-427.52"/>
<polygon fill="black" stroke="black" points="331.46,-431.89 320.5,-431.71 326.94,-429.76 322.42,-427.63 322.42,-427.63 322.42,-427.63 326.94,-429.76 324.33,-423.56 331.46,-431.89 331.46,-431.89"/>
</g>
<!-- src.discovery.discovery -->
<g id="node6" class="node">
<title>src.discovery.discovery</title>
<polygon fill="none" stroke="black" points="1005,-468 823,-468 823,-432 1005,-432 1005,-468"/>
<text text-anchor="middle" x="914" y="-446.3" font-family="Times,serif" font-size="14.00">src.discovery.discovery</text>
</g>
<!-- src.builder&#45;&gt;src.discovery.discovery -->
<g id="edge2" class="edge">
<title>src.builder&#45;&gt;src.discovery.discovery</title>
<path fill="none" stroke="black" d="M668.21,-33.96C671.17,-34.7 674.12,-35.39 677,-36 871.89,-77.23 996.29,18.15 1112,-144 1140,-183.24 1141.05,-207.72 1122,-252 1087.51,-332.17 1002.58,-394.99 952.56,-426.58"/>
<polygon fill="black" stroke="black" points="943.95,-431.93 950.07,-422.83 948.2,-429.29 952.45,-426.65 952.45,-426.65 952.45,-426.65 948.2,-429.29 954.82,-430.48 943.95,-431.93 943.95,-431.93"/>
</g>
<!-- src.discovery.entities -->
<g id="node7" class="node">
<title>src.discovery.entities</title>
<polygon fill="none" stroke="black" points="631.5,-180 464.5,-180 464.5,-144 631.5,-144 631.5,-180"/>
<text text-anchor="middle" x="548" y="-158.3" font-family="Times,serif" font-size="14.00">src.discovery.entities</text>
</g>
<!-- src.builder&#45;&gt;src.discovery.entities -->
<g id="edge3" class="edge">
<title>src.builder&#45;&gt;src.discovery.entities</title>
<path fill="none" stroke="black" d="M612.19,-36.13C599.59,-60.65 576.29,-105.97 561.5,-134.74"/>
<polygon fill="black" stroke="black" points="556.84,-143.81 557.41,-132.86 559.12,-139.36 561.41,-134.92 561.41,-134.92 561.41,-134.92 559.12,-139.36 565.41,-136.97 556.84,-143.81 556.84,-143.81"/>
</g>
<!-- src.discovery.exceptions -->
<g id="node8" class="node">
<title>src.discovery.exceptions</title>
<polygon fill="none" stroke="black" points="294,-540 104,-540 104,-504 294,-504 294,-540"/>
<text text-anchor="middle" x="199" y="-518.3" font-family="Times,serif" font-size="14.00">src.discovery.exceptions</text>
</g>
<!-- src.builder&#45;&gt;src.discovery.exceptions -->
<g id="edge4" class="edge">
<title>src.builder&#45;&gt;src.discovery.exceptions</title>
<path fill="none" stroke="black" d="M573.99,-33.44C570.95,-34.32 567.94,-35.18 565,-36 502.28,-53.46 486.09,-55.91 423,-72 268.72,-111.34 76,-1.79 76,-161 76,-161 76,-161 76,-307 76,-384.41 137.25,-459.13 173.31,-496.41"/>
<polygon fill="black" stroke="black" points="180.59,-503.79 170.36,-499.83 177.07,-500.23 173.56,-496.67 173.56,-496.67 173.56,-496.67 177.07,-500.23 176.76,-493.51 180.59,-503.79 180.59,-503.79"/>
</g>
<!-- src.discovery.manager -->
<g id="node10" class="node">
<title>src.discovery.manager</title>
<polygon fill="none" stroke="black" points="961,-108 785,-108 785,-72 961,-72 961,-108"/>
<text text-anchor="middle" x="873" y="-86.3" font-family="Times,serif" font-size="14.00">src.discovery.manager</text>
</g>
<!-- src.builder&#45;&gt;src.discovery.manager -->
<g id="edge5" class="edge">
<title>src.builder&#45;&gt;src.discovery.manager</title>
<path fill="none" stroke="black" d="M668.02,-33.39C671.06,-34.28 674.07,-35.16 677,-36 716.8,-47.42 761.34,-59.52 797.89,-69.27"/>
<polygon fill="black" stroke="black" points="807.97,-71.95 797.15,-73.73 803.14,-70.67 798.31,-69.38 798.31,-69.38 798.31,-69.38 803.14,-70.67 799.47,-65.03 807.97,-71.95 807.97,-71.95"/>
</g>
<!-- src.discovery.queries -->
<g id="node11" class="node">
<title>src.discovery.queries</title>
<polygon fill="none" stroke="black" points="1154.5,-540 987.5,-540 987.5,-504 1154.5,-504 1154.5,-540"/>
<text text-anchor="middle" x="1071" y="-518.3" font-family="Times,serif" font-size="14.00">src.discovery.queries</text>
</g>
<!-- src.builder&#45;&gt;src.discovery.queries -->
<g id="edge6" class="edge">
<title>src.builder&#45;&gt;src.discovery.queries</title>
<path fill="none" stroke="black" d="M668.18,-34.09C671.15,-34.8 674.11,-35.45 677,-36 771.4,-54.06 1025.46,-22.76 1108,-72 1208.35,-131.87 1198.03,-208.12 1183,-324 1173.89,-394.19 1157.56,-411.45 1115,-468 1108.02,-477.27 1100.02,-487.12 1092.76,-495.79"/>
<polygon fill="black" stroke="black" points="1086.1,-503.67 1089.12,-493.13 1089.32,-499.85 1092.55,-496.04 1092.55,-496.04 1092.55,-496.04 1089.32,-499.85 1095.99,-498.94 1086.1,-503.67 1086.1,-503.67"/>
</g>
<!-- src.files -->
<g id="node12" class="node">
<title>src.files</title>
<polygon fill="none" stroke="black" points="560,-324 488,-324 488,-288 560,-288 560,-324"/>
<text text-anchor="middle" x="524" y="-302.3" font-family="Times,serif" font-size="14.00">src.files</text>
</g>
<!-- src.builder&#45;&gt;src.files -->
<g id="edge7" class="edge">
<title>src.builder&#45;&gt;src.files</title>
<path fill="none" stroke="black" d="M580.84,-36.03C540.63,-55.54 481.09,-91.7 455,-144 431.48,-191.16 471.43,-248.26 499.69,-280.22"/>
<polygon fill="black" stroke="black" points="506.58,-287.78 496.52,-283.42 503.21,-284.09 499.85,-280.39 499.85,-280.39 499.85,-280.39 503.21,-284.09 503.17,-277.36 506.58,-287.78 506.58,-287.78"/>
</g>
<!-- src.managers -->
<g id="node13" class="node">
<title>src.managers</title>
<polygon fill="none" stroke="black" points="783.5,-252 670.5,-252 670.5,-216 783.5,-216 783.5,-252"/>
<text text-anchor="middle" x="727" y="-230.3" font-family="Times,serif" font-size="14.00">src.managers</text>
</g>
<!-- src.builder&#45;&gt;src.managers -->
<g id="edge8" class="edge">
<title>src.builder&#45;&gt;src.managers</title>
<path fill="none" stroke="black" d="M629.5,-36.15C647.99,-73.48 691.98,-162.31 713.99,-206.74"/>
<polygon fill="black" stroke="black" points="718.46,-215.77 709.99,-208.8 716.24,-211.29 714.03,-206.81 714.03,-206.81 714.03,-206.81 716.24,-211.29 718.06,-204.81 718.46,-215.77 718.46,-215.77"/>
</g>
<!-- src.parser -->
<g id="node14" class="node">
<title>src.parser</title>
<polygon fill="none" stroke="black" points="958.5,-540 869.5,-540 869.5,-504 958.5,-504 958.5,-540"/>
<text text-anchor="middle" x="914" y="-518.3" font-family="Times,serif" font-size="14.00">src.parser</text>
</g>
<!-- src.builder&#45;&gt;src.parser -->
<g id="edge9" class="edge">
<title>src.builder&#45;&gt;src.parser</title>
<path fill="none" stroke="black" d="M668.19,-34.06C671.15,-34.78 674.11,-35.44 677,-36 763.51,-52.89 993.47,-31.97 1072,-72 1109.88,-91.31 1118.4,-104.85 1135,-144 1191.85,-278.09 1186.4,-362.5 1086,-468 1081.74,-472.47 1017.14,-491.64 968.35,-505.64"/>
<polygon fill="black" stroke="black" points="958.52,-508.45 966.89,-501.38 963.32,-507.08 968.13,-505.7 968.13,-505.7 968.13,-505.7 963.32,-507.08 969.37,-510.03 958.52,-508.45 958.52,-508.45"/>
</g>
<!-- src.cohortbuilder.utils.helpers -->
<g id="node21" class="node">
<title>src.cohortbuilder.utils.helpers</title>
<polygon fill="none" stroke="black" points="785,-612 653,-612 653,-576 785,-576 785,-612"/>
<text text-anchor="middle" x="719" y="-590.3" font-family="Times,serif" font-size="14.00">src.cohortbuilder.utils.helpers</text>
</g>
<!-- src.builder&#45;&gt;src.cohortbuilder.utils.helpers -->
<g id="edge10" class="edge">
<title>src.builder&#45;&gt;src.cohortbuilder.utils.helpers</title>
<path fill="none" stroke="black" d="M573.82,-34.12C570.86,-34.82 567.9,-35.46 565,-36 460.07,-55.62 182.63,-26.65 86,-72 36.21,-95.37 0,-105.99 0,-161 0,-161 0,-161 0,-451 0,-495.13 7.46,-515.27 44,-540 92.63,-572.91 476.58,-586.74 642.76,-591.22"/>
<polygon fill="black" stroke="black" points="652.91,-591.49 642.79,-595.72 647.91,-591.35 642.91,-591.22 642.91,-591.22 642.91,-591.22 647.91,-591.35 643.03,-586.72 652.91,-591.49 652.91,-591.49"/>
</g>
<!-- src.definitions -->
<g id="node3" class="node">
<title>src.definitions</title>
<polygon fill="none" stroke="black" points="888,-396 770,-396 770,-360 888,-360 888,-396"/>
<text text-anchor="middle" x="829" y="-374.3" font-family="Times,serif" font-size="14.00">src.definitions</text>
</g>
<!-- src.discovery -->
<g id="node4" class="node">
<title>src.discovery</title>
<polygon fill="none" stroke="black" points="797.5,-36 686.5,-36 686.5,0 797.5,0 797.5,-36"/>
<text text-anchor="middle" x="742" y="-14.3" font-family="Times,serif" font-size="14.00">src.discovery</text>
</g>
<!-- src.discovery.discovery&#45;&gt;src.discovery.exceptions -->
<g id="edge11" class="edge">
<title>src.discovery.discovery&#45;&gt;src.discovery.exceptions</title>
<path fill="none" stroke="black" d="M822.72,-459.94C690.04,-472.93 444.49,-496.97 304.32,-510.69"/>
<polygon fill="black" stroke="black" points="294,-511.7 303.52,-506.25 298.98,-511.21 303.95,-510.72 303.95,-510.72 303.95,-510.72 298.98,-511.21 304.39,-515.2 294,-511.7 294,-511.7"/>
</g>
<!-- src.discovery.discovery&#45;&gt;src.discovery.queries -->
<g id="edge12" class="edge">
<title>src.discovery.discovery&#45;&gt;src.discovery.queries</title>
<path fill="none" stroke="black" d="M952.41,-468.12C973.87,-477.69 1000.8,-489.7 1023.57,-499.85"/>
<polygon fill="black" stroke="black" points="1032.72,-503.93 1021.75,-503.97 1028.15,-501.9 1023.58,-499.86 1023.58,-499.86 1023.58,-499.86 1028.15,-501.9 1025.42,-495.75 1032.72,-503.93 1032.72,-503.93"/>
</g>
<!-- src.discovery.discovery&#45;&gt;src.parser -->
<g id="edge13" class="edge">
<title>src.discovery.discovery&#45;&gt;src.parser</title>
<path fill="none" stroke="black" d="M914,-468.3C914,-476.02 914,-485.29 914,-493.89"/>
<polygon fill="black" stroke="black" points="914,-503.9 909.5,-493.9 914,-498.9 914,-493.9 914,-493.9 914,-493.9 914,-498.9 918.5,-493.9 914,-503.9 914,-503.9"/>
</g>
<!-- src.discovery.discovery&#45;&gt;src.cohortbuilder.utils.helpers -->
<g id="edge14" class="edge">
<title>src.discovery.discovery&#45;&gt;src.cohortbuilder.utils.helpers</title>
<path fill="none" stroke="black" d="M890.48,-468.13C855.63,-493.5 790.21,-541.15 751.02,-569.68"/>
<polygon fill="black" stroke="black" points="742.6,-575.81 748.04,-566.29 746.65,-572.87 750.69,-569.92 750.69,-569.92 750.69,-569.92 746.65,-572.87 753.34,-573.56 742.6,-575.81 742.6,-575.81"/>
</g>
<!-- src.discovery.entities&#45;&gt;src.discovery.definitions -->
<g id="edge15" class="edge">
<title>src.discovery.entities&#45;&gt;src.discovery.definitions</title>
<path fill="none" stroke="black" d="M537.94,-180.15C524.07,-204.01 498.57,-248.73 479,-288 455.83,-334.49 431.75,-390.06 418.14,-422.27"/>
<polygon fill="black" stroke="black" points="414.11,-431.86 413.83,-420.9 416.04,-427.25 417.98,-422.64 417.98,-422.64 417.98,-422.64 416.04,-427.25 422.13,-424.39 414.11,-431.86 414.11,-431.86"/>
</g>
<!-- src.discovery.entities&#45;&gt;src.discovery.discovery -->
<g id="edge16" class="edge">
<title>src.discovery.entities&#45;&gt;src.discovery.discovery</title>
<path fill="none" stroke="black" d="M631.76,-169.33C680.87,-175.86 742.73,-189.1 792,-216 865.63,-256.19 888.93,-279.95 914,-360 920.26,-380 919.89,-403.79 918.15,-421.74"/>
<polygon fill="black" stroke="black" points="916.98,-431.81 913.67,-421.36 917.56,-426.85 918.14,-421.88 918.14,-421.88 918.14,-421.88 917.56,-426.85 922.61,-422.4 916.98,-431.81 916.98,-431.81"/>
</g>
<!-- src.discovery.entities&#45;&gt;src.discovery.exceptions -->
<g id="edge17" class="edge">
<title>src.discovery.entities&#45;&gt;src.discovery.exceptions</title>
<path fill="none" stroke="black" d="M474.93,-180.01C447.36,-188.35 416.52,-200.1 391,-216 314.45,-263.7 301.01,-287.03 248,-360 226.85,-389.11 221.78,-397.68 211,-432 204.66,-452.17 201.67,-475.95 200.26,-493.85"/>
<polygon fill="black" stroke="black" points="199.59,-503.9 195.77,-493.62 199.92,-498.91 200.26,-493.92 200.26,-493.92 200.26,-493.92 199.92,-498.91 204.75,-494.22 199.59,-503.9 199.59,-503.9"/>
</g>
<!-- src.discovery.file -->
<g id="node9" class="node">
<title>src.discovery.file</title>
<polygon fill="none" stroke="black" points="713.5,-396 578.5,-396 578.5,-360 713.5,-360 713.5,-396"/>
<text text-anchor="middle" x="646" y="-374.3" font-family="Times,serif" font-size="14.00">src.discovery.file</text>
</g>
<!-- src.discovery.entities&#45;&gt;src.discovery.file -->
<g id="edge18" class="edge">
<title>src.discovery.entities&#45;&gt;src.discovery.file</title>
<path fill="none" stroke="black" d="M555.85,-180.15C572.91,-217.4 613.46,-305.93 633.85,-350.46"/>
<polygon fill="black" stroke="black" points="638.11,-359.77 629.85,-352.55 636.03,-355.22 633.94,-350.68 633.94,-350.68 633.94,-350.68 636.03,-355.22 638.04,-348.8 638.11,-359.77 638.11,-359.77"/>
</g>
<!-- src.discovery.entities&#45;&gt;src.discovery.queries -->
<g id="edge19" class="edge">
<title>src.discovery.entities&#45;&gt;src.discovery.queries</title>
<path fill="none" stroke="black" d="M631.74,-168.41C779.49,-180.28 1071,-215.09 1071,-305 1071,-305 1071,-305 1071,-379 1071,-419 1071,-465.35 1071,-493.92"/>
<polygon fill="black" stroke="black" points="1071,-503.95 1066.5,-493.95 1071,-498.95 1071,-493.95 1071,-493.95 1071,-493.95 1071,-498.95 1075.5,-493.95 1071,-503.95 1071,-503.95"/>
</g>
<!-- src.discovery.entities&#45;&gt;src.managers -->
<g id="edge20" class="edge">
<title>src.discovery.entities&#45;&gt;src.managers</title>
<path fill="none" stroke="black" d="M585.89,-180.12C609.78,-189.86 641.03,-202.13 668.09,-212.39"/>
<polygon fill="black" stroke="black" points="677.46,-215.93 666.52,-216.61 672.78,-214.17 668.11,-212.4 668.11,-212.4 668.11,-212.4 672.78,-214.17 669.7,-208.19 677.46,-215.93 677.46,-215.93"/>
</g>
<!-- src.discovery.entities&#45;&gt;src.parser -->
<g id="edge21" class="edge">
<title>src.discovery.entities&#45;&gt;src.parser</title>
<path fill="none" stroke="black" d="M631.73,-165.67C690.88,-170.55 770.43,-183.33 833,-216 944.03,-273.97 974.39,-313.18 1014,-432 1019.06,-447.18 1022.25,-454.29 1014,-468 1003.69,-485.13 985.78,-497.02 967.93,-505.12"/>
<polygon fill="black" stroke="black" points="958.65,-509.02 966.12,-501 963.26,-507.09 967.87,-505.15 967.87,-505.15 967.87,-505.15 963.26,-507.09 969.61,-509.3 958.65,-509.02 958.65,-509.02"/>
</g>
<!-- src.taxonomy -->
<g id="node15" class="node">
<title>src.taxonomy</title>
<polygon fill="none" stroke="black" points="407.5,-396 294.5,-396 294.5,-360 407.5,-360 407.5,-396"/>
<text text-anchor="middle" x="351" y="-374.3" font-family="Times,serif" font-size="14.00">src.taxonomy</text>
</g>
<!-- src.discovery.entities&#45;&gt;src.taxonomy -->
<g id="edge22" class="edge">
<title>src.discovery.entities&#45;&gt;src.taxonomy</title>
<path fill="none" stroke="black" d="M473.72,-180.02C451.94,-188.11 429.59,-199.7 413,-216 375.09,-253.26 355.92,-314.25 350.35,-349.5"/>
<polygon fill="black" stroke="black" points="349.05,-359.55 345.86,-349.06 349.69,-354.59 350.33,-349.64 350.33,-349.64 350.33,-349.64 349.69,-354.59 354.79,-350.21 349.05,-359.55 349.05,-359.55"/>
</g>
<!-- src.discovery.entities&#45;&gt;src.cohortbuilder.utils.helpers -->
<g id="edge23" class="edge">
<title>src.discovery.entities&#45;&gt;src.cohortbuilder.utils.helpers</title>
<path fill="none" stroke="black" d="M464.25,-175.02C424.21,-182.98 376.52,-195.8 337,-216 171.35,-300.67 -54.06,-403.19 72,-540 109.97,-581.21 479.44,-590.38 642.42,-592.42"/>
<polygon fill="black" stroke="black" points="652.85,-592.54 642.8,-596.92 647.85,-592.48 642.85,-592.42 642.85,-592.42 642.85,-592.42 647.85,-592.48 642.91,-587.92 652.85,-592.54 652.85,-592.54"/>
</g>
<!-- src.discovery.file&#45;&gt;src.discovery.definitions -->
<g id="edge24" class="edge">
<title>src.discovery.file&#45;&gt;src.discovery.definitions</title>
<path fill="none" stroke="black" d="M587.84,-396.03C553.87,-405.99 510.82,-418.59 475.24,-429.01"/>
<polygon fill="black" stroke="black" points="465.42,-431.89 473.75,-424.76 470.22,-430.48 475.02,-429.08 475.02,-429.08 475.02,-429.08 470.22,-430.48 476.28,-433.4 465.42,-431.89 465.42,-431.89"/>
</g>
<!-- src.discovery.file&#45;&gt;src.discovery.discovery -->
<g id="edge25" class="edge">
<title>src.discovery.file&#45;&gt;src.discovery.discovery</title>
<path fill="none" stroke="black" d="M711.22,-396.03C749.72,-406.09 798.62,-418.86 838.75,-429.35"/>
<polygon fill="black" stroke="black" points="848.49,-431.89 837.68,-433.72 843.65,-430.63 838.81,-429.36 838.81,-429.36 838.81,-429.36 843.65,-430.63 839.95,-425.01 848.49,-431.89 848.49,-431.89"/>
</g>
<!-- src.discovery.file&#45;&gt;src.discovery.exceptions -->
<g id="edge26" class="edge">
<title>src.discovery.file&#45;&gt;src.discovery.exceptions</title>
<path fill="none" stroke="black" d="M631.61,-396.31C613.32,-417.04 579.69,-451.05 543,-468 467.97,-502.66 374.92,-515.41 304.52,-519.77"/>
<polygon fill="black" stroke="black" points="294.3,-520.36 304.03,-515.29 299.3,-520.07 304.29,-519.79 304.29,-519.79 304.29,-519.79 299.3,-520.07 304.54,-524.28 294.3,-520.36 294.3,-520.36"/>
</g>
<!-- src.discovery.file&#45;&gt;src.discovery.queries -->
<g id="edge27" class="edge">
<title>src.discovery.file&#45;&gt;src.discovery.queries</title>
<path fill="none" stroke="black" d="M672.55,-396.13C704.77,-416.19 761.36,-449.06 814,-468 843.75,-478.7 916.76,-493.37 977.4,-504.57"/>
<polygon fill="black" stroke="black" points="987.4,-506.4 976.75,-509.02 982.48,-505.5 977.56,-504.6 977.56,-504.6 977.56,-504.6 982.48,-505.5 978.38,-500.17 987.4,-506.4 987.4,-506.4"/>
</g>
<!-- src.discovery.file&#45;&gt;src.cohortbuilder.utils.helpers -->
<g id="edge28" class="edge">
<title>src.discovery.file&#45;&gt;src.cohortbuilder.utils.helpers</title>
<path fill="none" stroke="black" d="M651.85,-396.15C664.53,-433.32 694.63,-521.56 709.85,-566.18"/>
<polygon fill="black" stroke="black" points="713.12,-575.77 705.63,-567.76 711.51,-571.04 709.89,-566.3 709.89,-566.3 709.89,-566.3 711.51,-571.04 714.15,-564.85 713.12,-575.77 713.12,-575.77"/>
</g>
<!-- src.discovery.manager&#45;&gt;src.definitions -->
<g id="edge29" class="edge">
<title>src.discovery.manager&#45;&gt;src.definitions</title>
<path fill="none" stroke="black" d="M901.26,-108.03C913.43,-117.04 926.37,-129.3 933,-144 952.73,-187.76 949.32,-206.86 933,-252 918.12,-293.14 883.15,-330.28 857.86,-353.18"/>
<polygon fill="black" stroke="black" points="850.35,-359.82 854.86,-349.83 854.1,-356.51 857.84,-353.2 857.84,-353.2 857.84,-353.2 854.1,-356.51 860.82,-356.57 850.35,-359.82 850.35,-359.82"/>
</g>
<!-- src.discovery.manager&#45;&gt;src.discovery.discovery -->
<g id="edge30" class="edge">
<title>src.discovery.manager&#45;&gt;src.discovery.discovery</title>
<path fill="none" stroke="black" d="M914.18,-108C929.21,-116.46 944.57,-128.29 953,-144 1002.8,-236.72 952.76,-367.53 927.12,-422.77"/>
<polygon fill="black" stroke="black" points="922.8,-431.87 923.03,-420.91 924.94,-427.36 927.09,-422.84 927.09,-422.84 927.09,-422.84 924.94,-427.36 931.15,-424.77 922.8,-431.87 922.8,-431.87"/>
</g>
<!-- src.discovery.manager&#45;&gt;src.discovery.entities -->
<g id="edge31" class="edge">
<title>src.discovery.manager&#45;&gt;src.discovery.entities</title>
<path fill="none" stroke="black" d="M793.91,-108.03C746.54,-118.24 686.19,-131.24 637.13,-141.8"/>
<polygon fill="black" stroke="black" points="627.16,-143.95 635.99,-137.45 632.05,-142.9 636.94,-141.84 636.94,-141.84 636.94,-141.84 632.05,-142.9 637.88,-146.24 627.16,-143.95 627.16,-143.95"/>
</g>
<!-- src.discovery.manager&#45;&gt;src.discovery.exceptions -->
<g id="edge32" class="edge">
<title>src.discovery.manager&#45;&gt;src.discovery.exceptions</title>
<path fill="none" stroke="black" d="M784.9,-91.52C698.58,-94.48 564.42,-105.66 455,-144 397.02,-164.31 384.45,-176.97 337,-216 249.2,-288.22 216.71,-319.55 200,-432 196.95,-452.51 196.82,-475.96 197.39,-493.64"/>
<polygon fill="black" stroke="black" points="197.82,-503.83 192.91,-494.02 197.61,-498.83 197.4,-493.84 197.4,-493.84 197.4,-493.84 197.61,-498.83 201.9,-493.65 197.82,-503.83 197.82,-503.83"/>
</g>
<!-- src.discovery.manager&#45;&gt;src.discovery.file -->
<g id="edge33" class="edge">
<title>src.discovery.manager&#45;&gt;src.discovery.file</title>
<path fill="none" stroke="black" d="M885.47,-108.01C897.29,-126.38 911.65,-156.22 900,-180 857.5,-266.75 756.33,-326.26 695.27,-355.7"/>
<polygon fill="black" stroke="black" points="686.2,-360 693.31,-351.65 690.72,-357.86 695.24,-355.72 695.24,-355.72 695.24,-355.72 690.72,-357.86 697.16,-359.79 686.2,-360 686.2,-360"/>
</g>
<!-- src.discovery.manager&#45;&gt;src.discovery.queries -->
<g id="edge34" class="edge">
<title>src.discovery.manager&#45;&gt;src.discovery.queries</title>
<path fill="none" stroke="black" d="M961.06,-96.73C1001.98,-103.24 1049.17,-116.65 1084,-144 1112.46,-166.35 1113.06,-180.94 1122,-216 1126.11,-232.1 1126.16,-380.18 1123,-396 1115.85,-431.81 1098.22,-470.2 1085.47,-494.84"/>
<polygon fill="black" stroke="black" points="1080.69,-503.89 1081.38,-492.95 1083.02,-499.47 1085.36,-495.05 1085.36,-495.05 1085.36,-495.05 1083.02,-499.47 1089.34,-497.16 1080.69,-503.89 1080.69,-503.89"/>
</g>
<!-- src.discovery.manager&#45;&gt;src.files -->
<g id="edge35" class="edge">
<title>src.discovery.manager&#45;&gt;src.files</title>
<path fill="none" stroke="black" d="M816.04,-108.07C789.65,-117.05 758.37,-129.28 732,-144 660.53,-183.9 587.17,-246.86 549.6,-281.02"/>
<polygon fill="black" stroke="black" points="542.15,-287.86 546.48,-277.78 545.83,-284.48 549.52,-281.1 549.52,-281.1 549.52,-281.1 545.83,-284.48 552.56,-284.42 542.15,-287.86 542.15,-287.86"/>
</g>
<!-- src.discovery.manager&#45;&gt;src.managers -->
<g id="edge36" class="edge">
<title>src.discovery.manager&#45;&gt;src.managers</title>
<path fill="none" stroke="black" d="M808.8,-108.03C788.91,-116.08 768.44,-127.64 754,-144 738.85,-161.16 732.2,-186.6 729.28,-205.9"/>
<polygon fill="black" stroke="black" points="728.01,-215.89 724.81,-205.4 728.64,-210.93 729.27,-205.97 729.27,-205.97 729.27,-205.97 728.64,-210.93 733.74,-206.54 728.01,-215.89 728.01,-215.89"/>
</g>
<!-- src.discovery.manager&#45;&gt;src.parser -->
<g id="edge37" class="edge">
<title>src.discovery.manager&#45;&gt;src.parser</title>
<path fill="none" stroke="black" d="M961.21,-107.07C1028.25,-124.97 1109,-161.39 1109,-233 1109,-233 1109,-233 1109,-379 1109,-448.87 1026.17,-487.99 968.48,-506.75"/>
<polygon fill="black" stroke="black" points="958.74,-509.81 966.93,-502.52 963.51,-508.31 968.28,-506.81 968.28,-506.81 968.28,-506.81 963.51,-508.31 969.63,-511.11 958.74,-509.81 958.74,-509.81"/>
</g>
<!-- src.discovery.manager&#45;&gt;src.cohortbuilder.utils.helpers -->
<g id="edge38" class="edge">
<title>src.discovery.manager&#45;&gt;src.cohortbuilder.utils.helpers</title>
<path fill="none" stroke="black" d="M961.01,-102.88C1018.85,-112.11 1088.08,-126.3 1112,-144 1241.58,-239.88 1351.95,-326.36 1275,-468 1246.93,-519.67 1219.3,-520 1164,-540 1098.08,-563.84 904.5,-580.38 795.62,-588.08"/>
<polygon fill="black" stroke="black" points="785.36,-588.8 795.02,-583.61 790.35,-588.45 795.33,-588.1 795.33,-588.1 795.33,-588.1 790.35,-588.45 795.65,-592.59 785.36,-588.8 785.36,-588.8"/>
</g>
<!-- src.cohortbuilder.utils.pauser -->
<g id="node23" class="node">
<title>src.cohortbuilder.utils.pauser</title>
<polygon fill="none" stroke="black" points="891,-180 763,-180 763,-144 891,-144 891,-180"/>
<text text-anchor="middle" x="827" y="-158.3" font-family="Times,serif" font-size="14.00">src.cohortbuilder.utils.pauser</text>
</g>
<!-- src.discovery.manager&#45;&gt;src.cohortbuilder.utils.pauser -->
<g id="edge39" class="edge">
<title>src.discovery.manager&#45;&gt;src.cohortbuilder.utils.pauser</title>
<path fill="none" stroke="black" d="M861.63,-108.3C856.28,-116.44 849.8,-126.31 843.89,-135.3"/>
<polygon fill="black" stroke="black" points="838.24,-143.9 839.97,-133.07 840.99,-139.72 843.73,-135.54 843.73,-135.54 843.73,-135.54 840.99,-139.72 847.49,-138.01 838.24,-143.9 838.24,-143.9"/>
</g>
<!-- src.files&#45;&gt;src.definitions -->
<g id="edge40" class="edge">
<title>src.files&#45;&gt;src.definitions</title>
<path fill="none" stroke="black" d="M560.19,-315.3C609.21,-326.56 697.73,-346.87 759.75,-361.11"/>
<polygon fill="black" stroke="black" points="769.85,-363.43 759.1,-365.57 764.98,-362.31 760.11,-361.19 760.11,-361.19 760.11,-361.19 764.98,-362.31 761.11,-356.8 769.85,-363.43 769.85,-363.43"/>
</g>
<!-- src.files&#45;&gt;src.discovery.definitions -->
<g id="edge41" class="edge">
<title>src.files&#45;&gt;src.discovery.definitions</title>
<path fill="none" stroke="black" d="M509.89,-324.13C489.42,-348.97 451.37,-395.15 427.72,-423.86"/>
<polygon fill="black" stroke="black" points="421.16,-431.81 424.05,-421.23 424.34,-427.95 427.52,-424.09 427.52,-424.09 427.52,-424.09 424.34,-427.95 430.99,-426.95 421.16,-431.81 421.16,-431.81"/>
</g>
<!-- src.files&#45;&gt;src.discovery.entities -->
<g id="edge42" class="edge">
<title>src.files&#45;&gt;src.discovery.entities</title>
<path fill="none" stroke="black" d="M526.91,-287.81C531,-263.58 538.52,-219.11 543.38,-190.32"/>
<polygon fill="black" stroke="black" points="545.11,-180.13 547.88,-190.74 544.27,-185.06 543.44,-189.99 543.44,-189.99 543.44,-189.99 544.27,-185.06 539,-189.24 545.11,-180.13 545.11,-180.13"/>
</g>
<!-- src.files&#45;&gt;src.discovery.exceptions -->
<g id="edge43" class="edge">
<title>src.files&#45;&gt;src.discovery.exceptions</title>
<path fill="none" stroke="black" d="M487.7,-311.3C428.99,-318.86 316.57,-336.04 285,-360 240.43,-393.83 216.43,-457.58 205.83,-493.89"/>
<polygon fill="black" stroke="black" points="203.07,-503.78 201.42,-492.94 204.41,-498.97 205.76,-494.15 205.76,-494.15 205.76,-494.15 204.41,-498.97 210.09,-495.36 203.07,-503.78 203.07,-503.78"/>
</g>
<!-- src.files&#45;&gt;src.discovery.file -->
<g id="edge44" class="edge">
<title>src.files&#45;&gt;src.discovery.file</title>
<path fill="none" stroke="black" d="M553.84,-324.12C569.94,-333.36 590,-344.87 607.29,-354.79"/>
<polygon fill="black" stroke="black" points="616.04,-359.81 605.13,-358.74 611.7,-357.32 607.37,-354.83 607.37,-354.83 607.37,-354.83 611.7,-357.32 609.61,-350.93 616.04,-359.81 616.04,-359.81"/>
</g>
<!-- src.files&#45;&gt;src.managers -->
<g id="edge45" class="edge">
<title>src.files&#45;&gt;src.managers</title>
<path fill="none" stroke="black" d="M560.27,-294.23C591.87,-283.95 637.94,-268.2 673.7,-255.52"/>
<polygon fill="black" stroke="black" points="683.49,-252.03 675.58,-259.63 678.78,-253.71 674.07,-255.39 674.07,-255.39 674.07,-255.39 678.78,-253.71 672.56,-251.15 683.49,-252.03 683.49,-252.03"/>
</g>
<!-- src.files&#45;&gt;src.parser -->
<g id="edge46" class="edge">
<title>src.files&#45;&gt;src.parser</title>
<path fill="none" stroke="black" d="M528.73,-324.31C534.95,-344.08 547.67,-376.23 569,-396 651.66,-472.62 784.86,-503.04 859.25,-514.52"/>
<polygon fill="black" stroke="black" points="869.34,-516.02 858.79,-519 864.4,-515.28 859.45,-514.55 859.45,-514.55 859.45,-514.55 864.4,-515.28 860.11,-510.1 869.34,-516.02 869.34,-516.02"/>
</g>
<!-- src.files&#45;&gt;src.cohortbuilder.utils.helpers -->
<g id="edge47" class="edge">
<title>src.files&#45;&gt;src.cohortbuilder.utils.helpers</title>
<path fill="none" stroke="black" d="M487.97,-307.6C433.21,-309.85 327.08,-319.59 248,-360 154.5,-407.78 23.97,-462.68 95,-540 131.39,-579.61 484.44,-589.65 642.8,-592.17"/>
<polygon fill="black" stroke="black" points="652.95,-592.33 642.88,-596.67 647.95,-592.25 642.95,-592.17 642.95,-592.17 642.95,-592.17 647.95,-592.25 643.02,-587.67 652.95,-592.33 652.95,-592.33"/>
</g>
<!-- src.managers&#45;&gt;src.definitions -->
<g id="edge48" class="edge">
<title>src.managers&#45;&gt;src.definitions</title>
<path fill="none" stroke="black" d="M739.3,-252.13C757.07,-276.86 790.04,-322.76 810.67,-351.49"/>
<polygon fill="black" stroke="black" points="816.65,-359.81 807.16,-354.31 813.74,-355.75 810.82,-351.69 810.82,-351.69 810.82,-351.69 813.74,-355.75 814.47,-349.06 816.65,-359.81 816.65,-359.81"/>
</g>
<!-- src.managers&#45;&gt;src.discovery.entities -->
<g id="edge49" class="edge">
<title>src.managers&#45;&gt;src.discovery.entities</title>
<path fill="none" stroke="black" d="M689.25,-215.93C665.39,-206.2 634.14,-193.94 607.07,-183.67"/>
<polygon fill="black" stroke="black" points="597.69,-180.12 608.63,-179.45 602.36,-181.89 607.04,-183.66 607.04,-183.66 607.04,-183.66 602.36,-181.89 605.45,-187.87 597.69,-180.12 597.69,-180.12"/>
</g>
<!-- src.managers&#45;&gt;src.discovery.exceptions -->
<g id="edge50" class="edge">
<title>src.managers&#45;&gt;src.discovery.exceptions</title>
<path fill="none" stroke="black" d="M699.07,-252.07C665.11,-273.87 607.56,-314.28 569,-360 533.73,-401.81 554.52,-436.23 510,-468 477.52,-491.18 381.26,-505.14 304.35,-512.87"/>
<polygon fill="black" stroke="black" points="294.12,-513.87 303.63,-508.42 299.09,-513.39 304.07,-512.9 304.07,-512.9 304.07,-512.9 299.09,-513.39 304.51,-517.38 294.12,-513.87 294.12,-513.87"/>
</g>
<!-- src.managers&#45;&gt;src.discovery.file -->
<g id="edge51" class="edge">
<title>src.managers&#45;&gt;src.discovery.file</title>
<path fill="none" stroke="black" d="M717.23,-252.13C703.18,-276.76 677.17,-322.36 660.77,-351.12"/>
<polygon fill="black" stroke="black" points="655.81,-359.81 656.85,-348.89 658.28,-355.47 660.76,-351.12 660.76,-351.12 660.76,-351.12 658.28,-355.47 664.67,-353.35 655.81,-359.81 655.81,-359.81"/>
</g>
<!-- src.managers&#45;&gt;src.files -->
<g id="edge52" class="edge">
<title>src.managers&#45;&gt;src.files</title>
<path fill="none" stroke="black" d="M671.71,-252.03C639.67,-262.7 599.87,-276.41 569.61,-287.21"/>
<polygon fill="black" stroke="black" points="560.15,-290.61 568.04,-283 564.85,-288.92 569.56,-287.23 569.56,-287.23 569.56,-287.23 564.85,-288.92 571.08,-291.47 560.15,-290.61 560.15,-290.61"/>
</g>
<!-- src.managers&#45;&gt;src.parser -->
<g id="edge53" class="edge">
<title>src.managers&#45;&gt;src.parser</title>
<path fill="none" stroke="black" d="M768.86,-252.12C810,-271.5 870.37,-307.37 897,-360 904.22,-374.28 905.78,-382.62 897,-396 874.94,-429.62 836.06,-398.38 814,-432 805.22,-445.38 805.75,-454.29 814,-468 824.31,-485.13 842.22,-497.02 860.07,-505.12"/>
<polygon fill="black" stroke="black" points="869.35,-509.02 858.39,-509.3 864.74,-507.09 860.13,-505.15 860.13,-505.15 860.13,-505.15 864.74,-507.09 861.88,-501 869.35,-509.02 869.35,-509.02"/>
</g>
<!-- src.managers&#45;&gt;src.cohortbuilder.utils.helpers -->
<g id="edge54" class="edge">
<title>src.managers&#45;&gt;src.cohortbuilder.utils.helpers</title>
<path fill="none" stroke="black" d="M726.61,-252.27C725.33,-309.81 721.18,-495.34 719.61,-565.65"/>
<polygon fill="black" stroke="black" points="719.38,-575.91 715.11,-565.81 719.49,-570.91 719.61,-565.91 719.61,-565.91 719.61,-565.91 719.49,-570.91 724.1,-566.01 719.38,-575.91 719.38,-575.91"/>
</g>
<!-- src.parser&#45;&gt;src.cohortbuilder.utils.helpers -->
<g id="edge55" class="edge">
<title>src.parser&#45;&gt;src.cohortbuilder.utils.helpers</title>
<path fill="none" stroke="black" d="M869.26,-539.06C841.56,-549 805.73,-561.86 776.01,-572.53"/>
<polygon fill="black" stroke="black" points="766.59,-575.92 774.48,-568.3 771.3,-574.23 776,-572.54 776,-572.54 776,-572.54 771.3,-574.23 777.52,-576.77 766.59,-575.92 766.59,-575.92"/>
</g>
<!-- src.taxonomy&#45;&gt;src.discovery.definitions -->
<g id="edge56" class="edge">
<title>src.taxonomy&#45;&gt;src.discovery.definitions</title>
<path fill="none" stroke="black" d="M364.84,-396.3C371.49,-404.61 379.58,-414.72 386.89,-423.86"/>
<polygon fill="black" stroke="black" points="393.32,-431.9 383.56,-426.9 390.19,-427.99 387.07,-424.09 387.07,-424.09 387.07,-424.09 390.19,-427.99 390.58,-421.28 393.32,-431.9 393.32,-431.9"/>
</g>
<!-- src.taxonomy&#45;&gt;src.discovery.entities -->
<g id="edge57" class="edge">
<title>src.taxonomy&#45;&gt;src.discovery.entities</title>
<path fill="none" stroke="black" d="M359.45,-359.55C370.15,-327.12 389.17,-257.12 431,-216 445.12,-202.12 463.43,-191.65 481.38,-183.85"/>
<polygon fill="black" stroke="black" points="490.71,-180.02 483.17,-187.98 486.08,-181.92 481.46,-183.82 481.46,-183.82 481.46,-183.82 486.08,-181.92 479.75,-179.66 490.71,-180.02 490.71,-180.02"/>
</g>
<!-- src.taxonomy&#45;&gt;src.cohortbuilder.utils.helpers -->
<g id="edge58" class="edge">
<title>src.taxonomy&#45;&gt;src.cohortbuilder.utils.helpers</title>
<path fill="none" stroke="black" d="M330.53,-396.31C311,-414.94 286.91,-445 304,-468 344.53,-522.54 534.44,-562.34 642.77,-581.05"/>
<polygon fill="black" stroke="black" points="652.67,-582.74 642.06,-585.5 647.75,-581.9 642.82,-581.06 642.82,-581.06 642.82,-581.06 647.75,-581.9 643.57,-576.62 652.67,-582.74 652.67,-582.74"/>
</g>
<!-- src.cohortbuilder.utils.imageprocessing -->
<g id="node22" class="node">
<title>src.cohortbuilder.utils.imageprocessing</title>
<polygon fill="none" stroke="black" points="1427,-612 1227,-612 1227,-576 1427,-576 1427,-612"/>
<text text-anchor="middle" x="1327" y="-590.3" font-family="Times,serif" font-size="14.00">src.cohortbuilder.utils.imageprocessing</text>
</g>
<!-- src.taxonomy&#45;&gt;src.cohortbuilder.utils.imageprocessing -->
<g id="edge59" class="edge">
<title>src.taxonomy&#45;&gt;src.cohortbuilder.utils.imageprocessing</title>
<path fill="none" stroke="black" d="M402.93,-396.02C523.39,-435.41 815.08,-530.24 861,-540 981.07,-565.53 1121.33,-579.37 1216.36,-586.44"/>
<polygon fill="black" stroke="black" points="1226.56,-587.18 1216.26,-590.94 1221.58,-586.82 1216.59,-586.45 1216.59,-586.45 1216.59,-586.45 1221.58,-586.82 1216.92,-581.97 1226.56,-587.18 1226.56,-587.18"/>
</g>
<!-- src.cohortbuilder.tools -->
<g id="node16" class="node">
<title>src.cohortbuilder.tools</title>
<polygon fill="none" stroke="black" points="892.5,-36 815.5,-36 815.5,0 892.5,0 892.5,-36"/>
<text text-anchor="middle" x="854" y="-14.3" font-family="Times,serif" font-size="14.00">src.cohortbuilder.tools</text>
</g>
<!-- src.cohortbuilder.tools.cohort -->
<g id="node17" class="node">
<title>src.cohortbuilder.tools.cohort</title>
<polygon fill="none" stroke="black" points="1483,-468 1355,-468 1355,-432 1483,-432 1483,-468"/>
<text text-anchor="middle" x="1419" y="-446.3" font-family="Times,serif" font-size="14.00">src.cohortbuilder.tools.cohort</text>
</g>
<!-- src.cohortbuilder.tools.definitions -->
<g id="node18" class="node">
<title>src.cohortbuilder.tools.definitions</title>
<polygon fill="none" stroke="black" points="1533.5,-684 1376.5,-684 1376.5,-648 1533.5,-648 1533.5,-684"/>
<text text-anchor="middle" x="1455" y="-662.3" font-family="Times,serif" font-size="14.00">src.cohortbuilder.tools.definitions</text>
</g>
<!-- src.cohortbuilder.tools.cohort&#45;&gt;src.cohortbuilder.tools.definitions -->
<g id="edge60" class="edge">
<title>src.cohortbuilder.tools.cohort&#45;&gt;src.cohortbuilder.tools.definitions</title>
<path fill="none" stroke="black" d="M1468.56,-468.15C1484.69,-476.36 1500.8,-487.99 1510,-504 1535.54,-548.43 1501.2,-606.59 1476.41,-639.46"/>
<polygon fill="black" stroke="black" points="1470.05,-647.63 1472.64,-636.98 1473.12,-643.69 1476.19,-639.74 1476.19,-639.74 1476.19,-639.74 1473.12,-643.69 1479.74,-642.51 1470.05,-647.63 1470.05,-647.63"/>
</g>
<!-- src.cohortbuilder.tools.parameters -->
<g id="node19" class="node">
<title>src.cohortbuilder.tools.parameters</title>
<polygon fill="none" stroke="black" points="1501,-540 1337,-540 1337,-504 1501,-504 1501,-540"/>
<text text-anchor="middle" x="1419" y="-518.3" font-family="Times,serif" font-size="14.00">src.cohortbuilder.tools.parameters</text>
</g>
<!-- src.cohortbuilder.tools.cohort&#45;&gt;src.cohortbuilder.tools.parameters -->
<g id="edge61" class="edge">
<title>src.cohortbuilder.tools.cohort&#45;&gt;src.cohortbuilder.tools.parameters</title>
<path fill="none" stroke="black" d="M1419,-468.3C1419,-476.02 1419,-485.29 1419,-493.89"/>
<polygon fill="black" stroke="black" points="1419,-503.9 1414.5,-493.9 1419,-498.9 1419,-493.9 1419,-493.9 1419,-493.9 1419,-498.9 1423.5,-493.9 1419,-503.9 1419,-503.9"/>
</g>
<!-- src.cohortbuilder.tools.cohort&#45;&gt;src.cohortbuilder.utils.helpers -->
<g id="edge62" class="edge">
<title>src.cohortbuilder.tools.cohort&#45;&gt;src.cohortbuilder.utils.helpers</title>
<path fill="none" stroke="black" d="M1386.59,-468.11C1368.84,-477.92 1346.7,-490.87 1328,-504 1307.6,-518.32 1308,-530.4 1285,-540 1198.56,-576.06 929.16,-587.78 795.62,-591.43"/>
<polygon fill="black" stroke="black" points="785.46,-591.7 795.34,-586.94 790.46,-591.57 795.46,-591.44 795.46,-591.44 795.46,-591.44 790.46,-591.57 795.58,-595.94 785.46,-591.7 785.46,-591.7"/>
</g>
<!-- src.cohortbuilder.tools.parameters&#45;&gt;src.cohortbuilder.tools.definitions -->
<g id="edge63" class="edge">
<title>src.cohortbuilder.tools.parameters&#45;&gt;src.cohortbuilder.tools.definitions</title>
<path fill="none" stroke="black" d="M1424.95,-540.06C1428.43,-550.38 1432.77,-563.86 1436,-576 1441.46,-596.48 1446.41,-619.94 1449.89,-637.63"/>
<polygon fill="black" stroke="black" points="1451.86,-647.82 1445.55,-638.85 1450.91,-642.91 1449.96,-638 1449.96,-638 1449.96,-638 1450.91,-642.91 1454.38,-637.15 1451.86,-647.82 1451.86,-647.82"/>
</g>
<!-- src.cohortbuilder.tools.parameters&#45;&gt;src.cohortbuilder.utils.helpers -->
<g id="edge64" class="edge">
<title>src.cohortbuilder.tools.parameters&#45;&gt;src.cohortbuilder.utils.helpers</title>
<path fill="none" stroke="black" d="M1336.85,-538.04C1332.17,-538.74 1327.53,-539.4 1323,-540 1134.08,-564.97 910.3,-581.13 795.44,-588.45"/>
<polygon fill="black" stroke="black" points="785.35,-589.09 795.04,-583.97 790.34,-588.77 795.33,-588.46 795.33,-588.46 795.33,-588.46 790.34,-588.77 795.61,-592.95 785.35,-589.09 785.35,-589.09"/>
</g>
<!-- src.cohortbuilder.tools.parameters&#45;&gt;src.cohortbuilder.utils.imageprocessing -->
<g id="edge65" class="edge">
<title>src.cohortbuilder.tools.parameters&#45;&gt;src.cohortbuilder.utils.imageprocessing</title>
<path fill="none" stroke="black" d="M1396.26,-540.3C1384.56,-549.2 1370.14,-560.18 1357.49,-569.8"/>
<polygon fill="black" stroke="black" points="1349.48,-575.9 1354.71,-566.26 1353.46,-572.87 1357.44,-569.84 1357.44,-569.84 1357.44,-569.84 1353.46,-572.87 1360.16,-573.42 1349.48,-575.9 1349.48,-575.9"/>
</g>
<!-- src.cohortbuilder.utils -->
<g id="node20" class="node">
<title>src.cohortbuilder.utils</title>
<polygon fill="none" stroke="black" points="985,-36 911,-36 911,0 985,0 985,-36"/>
<text text-anchor="middle" x="948" y="-14.3" font-family="Times,serif" font-size="14.00">src.cohortbuilder.utils</text>
</g>
<!-- src.cohortbuilder.utils.imageprocessing&#45;&gt;src.cohortbuilder.tools.definitions -->
<g id="edge66" class="edge">
<title>src.cohortbuilder.utils.imageprocessing&#45;&gt;src.cohortbuilder.tools.definitions</title>
<path fill="none" stroke="black" d="M1358.31,-612.12C1375.2,-621.36 1396.25,-632.87 1414.38,-642.79"/>
<polygon fill="black" stroke="black" points="1423.57,-647.81 1412.63,-646.96 1419.18,-645.41 1414.79,-643.01 1414.79,-643.01 1414.79,-643.01 1419.18,-645.41 1416.95,-639.06 1423.57,-647.81 1423.57,-647.81"/>
</g>
</g>
</svg>
